<svg width="20" height="21" viewBox="0 0 20 21" fill="none" xmlns="http://www.w3.org/2000/svg">
<path d="M1 8.09689L1 8.0962C0.999986 8.07631 1.0045 8.05699 1.01281 8.03983C1.02109 8.02273 1.03273 8.00858 1.04622 7.99798C1.04624 7.99796 1.04626 7.99794 1.04629 7.99792L9.9351 1.0229L9.93518 1.02285C9.95476 1.00748 9.97759 1 10 1C10.0224 1 10.0452 1.00748 10.0648 1.02285L10.0649 1.0229L18.9537 7.99793C18.9537 7.99794 18.9538 7.99796 18.9538 7.99798C18.9673 8.00857 18.9789 8.02273 18.9872 8.03984C18.9955 8.05699 19 8.0763 19 8.0962V8.09689V19.879C19 19.9139 18.9862 19.9457 18.9643 19.9677C18.9428 19.9894 18.9155 20 18.8889 20H1.11111C1.08453 20 1.05722 19.9894 1.03568 19.9677C1.01385 19.9457 1 19.9139 1 19.879L1 8.09689ZM8.88889 11.0317H7.88889V12.0317V18.7579V19.7579H8.88889H11.1111H12.1111V18.7579V12.0317V11.0317H11.1111H8.88889Z" stroke="#6C6C6C" stroke-width="2"/>
</svg>
