<svg width="21" height="21" viewBox="0 0 21 21" fill="none" xmlns="http://www.w3.org/2000/svg">
<path d="M10.7209 2.23649C10.5791 2.1794 10.4209 2.1794 10.2791 2.23649L3.19212 5.08473L6.04688 6.23143L13.3548 3.29488L10.7209 2.23649ZM14.9531 3.93804L7.64525 6.87458L10.5 8.02128L17.8079 5.08473L14.9531 3.93804ZM18.8125 5.96653L11.0938 9.06894V18.5217L18.8125 15.4193V5.96773V5.96653ZM9.90625 18.5229V9.06774L2.1875 5.96653V15.4205L9.90625 18.5229ZM9.83856 1.12797C10.2632 0.957342 10.7368 0.957342 11.1614 1.12797L19.6271 4.53107C19.7372 4.5754 19.8315 4.65182 19.898 4.7505C19.9644 4.84917 20 4.96559 20 5.08473V15.4205C19.9998 15.6589 19.9286 15.8919 19.7955 16.0892C19.6623 16.2866 19.4734 16.4394 19.2531 16.5278L10.7209 19.9572C10.5791 20.0143 10.4209 20.0143 10.2791 19.9572L1.74813 16.5278C1.52755 16.4396 1.33837 16.2869 1.20501 16.0895C1.07166 15.8921 1.00025 15.6591 1 15.4205V5.08473C1.00003 4.96559 1.03556 4.84917 1.10201 4.7505C1.16847 4.65182 1.26281 4.5754 1.37288 4.53107L9.83856 1.12797Z" fill="#6C6C6C" stroke="#6C6C6C" stroke-width="0.5"/>
</svg>
