<svg width="19" height="21" viewBox="0 0 19 21" fill="none" xmlns="http://www.w3.org/2000/svg">
<path d="M16.8889 8.4H17.9444C18.2244 8.4 18.4929 8.51062 18.6908 8.70754C18.8888 8.90445 19 9.17152 19 9.45V19.95C19 20.2285 18.8888 20.4956 18.6908 20.6925C18.4929 20.8894 18.2244 21 17.9444 21H1.05556C0.775605 21 0.50712 20.8894 0.309165 20.6925C0.11121 20.4956 0 20.2285 0 19.95V9.45C0 9.17152 0.11121 8.90445 0.309165 8.70754C0.50712 8.51062 0.775605 8.4 1.05556 8.4H2.11111V7.35C2.11111 6.38478 2.30223 5.42902 2.67356 4.53728C3.04488 3.64553 3.58914 2.83528 4.27527 2.15277C4.96139 1.47025 5.77593 0.928857 6.67239 0.559485C7.56886 0.190113 8.52968 0 9.5 0C10.4703 0 11.4311 0.190113 12.3276 0.559485C13.2241 0.928857 14.0386 1.47025 14.7247 2.15277C15.4109 2.83528 15.9551 3.64553 16.3264 4.53728C16.6978 5.42902 16.8889 6.38478 16.8889 7.35V8.4ZM2.11111 10.5V18.9H16.8889V10.5H2.11111ZM8.44444 12.6H10.5556V16.8H8.44444V12.6ZM14.7778 8.4V7.35C14.7778 5.95761 14.2217 4.62226 13.232 3.63769C12.2422 2.65312 10.8998 2.1 9.5 2.1C8.10025 2.1 6.75782 2.65312 5.76805 3.63769C4.77827 4.62226 4.22222 5.95761 4.22222 7.35V8.4H14.7778Z" fill="#6C6C6C"/>
</svg>
