<svg width="23" height="18" viewBox="0 0 23 18" fill="none" xmlns="http://www.w3.org/2000/svg">
<path d="M11.4368 12.1373C13.2357 12.1373 14.694 10.6791 14.694 8.88019C14.694 7.08132 13.2357 5.62305 11.4368 5.62305C9.63796 5.62305 8.17969 7.08132 8.17969 8.88019C8.17969 10.6791 9.63796 12.1373 11.4368 12.1373Z" stroke="#19B5F8" stroke-width="2" stroke-linecap="round" stroke-linejoin="round"/>
<path d="M21.4872 7.7533C22.0018 8.42644 22.0018 9.33519 21.4872 10.0072C19.8662 12.1233 15.9772 16.4803 11.4368 16.4803C6.8963 16.4803 3.00727 12.1233 1.3863 10.0072C1.13592 9.68493 1 9.28841 1 8.88027C1 8.47213 1.13592 8.07562 1.3863 7.7533C3.00727 5.63724 6.8963 1.28027 11.4368 1.28027C15.9772 1.28027 19.8662 5.63724 21.4872 7.7533V7.7533Z" stroke="#19B5F8" stroke-width="2" stroke-linecap="round" stroke-linejoin="round"/>
</svg>
