<svg width="23" height="21" viewBox="0 0 23 21" fill="none" xmlns="http://www.w3.org/2000/svg">
<path d="M11.4368 14.1373C13.2357 14.1373 14.694 12.6791 14.694 10.8802C14.694 9.08132 13.2357 7.62305 11.4368 7.62305C9.63796 7.62305 8.17969 9.08132 8.17969 10.8802C8.17969 12.6791 9.63796 14.1373 11.4368 14.1373Z" stroke="#6C6C6C" stroke-width="2" stroke-linecap="round" stroke-linejoin="round"/>
<path d="M21.4872 9.7533C22.0018 10.4264 22.0018 11.3352 21.4872 12.0072C19.8662 14.1233 15.9772 18.4803 11.4368 18.4803C6.8963 18.4803 3.00727 14.1233 1.3863 12.0072C1.13592 11.6849 1 11.2884 1 10.8803C1 10.4721 1.13592 10.0756 1.3863 9.7533C3.00727 7.63724 6.8963 3.28027 11.4368 3.28027C15.9772 3.28027 19.8662 7.63724 21.4872 9.7533V9.7533Z" stroke="#6C6C6C" stroke-width="2" stroke-linecap="round" stroke-linejoin="round"/>
<path d="M1.75977 20L21.5198 1" stroke="#6C6C6C" stroke-width="2" stroke-linecap="round"/>
</svg>
