<svg width="12" height="19" viewBox="0 0 12 19" fill="none" xmlns="http://www.w3.org/2000/svg">
<path d="M6 0C2.6916 0 0 2.66356 0 5.9375H2.4C2.4 3.97337 4.0152 2.375 6 2.375C7.9848 2.375 9.6 3.97337 9.6 5.9375C9.6 7.20694 9.0552 7.67719 7.8228 8.61531C7.3644 8.96444 6.8472 9.35869 6.3516 9.84794C4.7772 11.4047 4.794 12.9402 4.8 13.0625V15.4375H7.2V13.0518C7.2 13.0233 7.2276 12.3381 8.0484 11.5271C8.4324 11.1471 8.8668 10.8169 9.2856 10.4975C10.5576 9.5285 12 8.43125 12 5.9375C12 2.66356 9.3084 0 6 0ZM4.8 16.625H7.2V19H4.8V16.625Z" fill="#6C6C6C"/>
</svg>
