<svg width="19" height="19" viewBox="0 0 19 19" fill="none" xmlns="http://www.w3.org/2000/svg">
<path d="M18.5959 9.95907L14.6154 7.89042V3.0395C14.6153 2.8984 14.5775 2.76011 14.5061 2.64011C14.4347 2.52011 14.3326 2.42315 14.2113 2.36008L9.82665 0.0801515C9.72522 0.0274407 9.61339 0 9.5 0C9.38661 0 9.27478 0.0274407 9.17335 0.0801515L4.78873 2.36008C4.66736 2.42315 4.56528 2.52011 4.4939 2.64011C4.42253 2.76011 4.38469 2.8984 4.38461 3.0395V7.88966L0.404115 9.95907C0.282638 10.0222 0.180477 10.1193 0.109096 10.2394C0.0377149 10.3596 -6.3202e-05 10.498 7.93704e-08 10.6392V15.9591C7.25341e-05 16.1002 0.0379147 16.2385 0.109288 16.3585C0.180662 16.4785 0.282749 16.5754 0.404115 16.6385L4.78873 18.9184C4.89018 18.9711 5.002 18.9985 5.11538 18.9985C5.22876 18.9985 5.34059 18.9711 5.44204 18.9184L9.5 16.8095L13.558 18.9199C13.6594 18.9726 13.7712 19 13.8846 19C13.998 19 14.1098 18.9726 14.2113 18.9199L18.5959 16.64C18.7175 16.5768 18.8197 16.4796 18.8911 16.3593C18.9625 16.239 19.0002 16.1004 19 15.9591V10.6392C19.0001 10.498 18.9623 10.3596 18.8909 10.2394C18.8195 10.1193 18.7174 10.0222 18.5959 9.95907ZM13.1538 7.89042L10.2308 9.41037V5.78985L13.1538 4.2699V7.89042ZM9.5 1.60998L12.2506 3.0395L9.5 4.46977L6.74938 3.0395L9.5 1.60998ZM5.84615 4.2699L8.76923 5.78985V9.41037L5.84615 7.89042V4.2699ZM4.38461 17.0094L1.46154 15.4894V11.8689L4.38461 13.3888V17.0094ZM5.11538 12.0695L2.36477 10.6392L5.11538 9.20897L7.866 10.6392L5.11538 12.0695ZM5.84615 13.3888L8.76923 11.8689V15.4894L5.84615 17.0094V13.3888ZM13.1538 17.0094L10.2308 15.4894V11.8689L13.1538 13.3888V17.0094ZM13.8846 12.0695L11.134 10.6392L13.8846 9.20897L16.6352 10.6392L13.8846 12.0695ZM17.5385 15.4894L14.6154 17.0094V13.3888L17.5385 11.8689V15.4894Z" fill="#19B5F8"/>
</svg>
